<svg width="32" height="32" viewBox="0 0 32 32" fill="none" xmlns="http://www.w3.org/2000/svg">
<path d="M2.5 13L4.5 13V13L2.5 13ZM23.5 13L21.5 13V13L23.5 13ZM13 2.5L13 0.5L13 2.5ZM28.0858 30.9142C28.8668 31.6953 30.1332 31.6953 30.9142 30.9142C31.6953 30.1332 31.6953 28.8668 30.9142 28.0858L28.0858 30.9142ZM21.9142 19.0858C21.1332 18.3047 19.8668 18.3047 19.0858 19.0858C18.3047 19.8668 18.3047 21.1332 19.0858 21.9142L21.9142 19.0858ZM0.5 13C0.5 14.6415 0.823322 16.267 1.45151 17.7835L5.14702 16.2528C4.71986 15.2215 4.5 14.1162 4.5 13L0.5 13ZM1.45151 17.7835C2.07969 19.3001 3.00043 20.6781 4.16117 21.8388L6.98959 19.0104C6.20029 18.2211 5.57419 17.2841 5.14702 16.2528L1.45151 17.7835ZM4.16117 21.8388C5.3219 22.9996 6.69989 23.9203 8.21646 24.5485L9.74719 20.853C8.71592 20.4258 7.77889 19.7997 6.98959 19.0104L4.16117 21.8388ZM8.21646 24.5485C9.73303 25.1767 11.3585 25.5 13 25.5V21.5C11.8838 21.5 10.7785 21.2801 9.74719 20.853L8.21646 24.5485ZM13 25.5C14.6415 25.5 16.267 25.1767 17.7835 24.5485L16.2528 20.853C15.2215 21.2801 14.1162 21.5 13 21.5V25.5ZM17.7835 24.5485C19.3001 23.9203 20.6781 22.9996 21.8388 21.8388L19.0104 19.0104C18.2211 19.7997 17.2841 20.4258 16.2528 20.853L17.7835 24.5485ZM21.8388 21.8388C22.9996 20.6781 23.9203 19.3001 24.5485 17.7835L20.853 16.2528C20.4258 17.2841 19.7997 18.2211 19.0104 19.0104L21.8388 21.8388ZM24.5485 17.7835C25.1767 16.267 25.5 14.6415 25.5 13L21.5 13C21.5 14.1162 21.2801 15.2215 20.853 16.2528L24.5485 17.7835ZM25.5 13C25.5 11.3585 25.1767 9.73303 24.5485 8.21646L20.853 9.74719C21.2801 10.7785 21.5 11.8838 21.5 13L25.5 13ZM24.5485 8.21646C23.9203 6.69989 22.9996 5.3219 21.8388 4.16117L19.0104 6.98959C19.7997 7.77889 20.4258 8.71592 20.853 9.74719L24.5485 8.21646ZM21.8388 4.16117C20.6781 3.00043 19.3001 2.07969 17.7835 1.45151L16.2528 5.14702C17.2841 5.57419 18.2211 6.20029 19.0104 6.98959L21.8388 4.16117ZM17.7835 1.45151C16.267 0.823322 14.6415 0.5 13 0.5L13 4.5C14.1162 4.5 15.2215 4.71986 16.2528 5.14702L17.7835 1.45151ZM13 0.5C11.3585 0.5 9.73303 0.823322 8.21646 1.45151L9.74719 5.14702C10.7785 4.71986 11.8838 4.5 13 4.5L13 0.5ZM8.21646 1.45151C6.69989 2.07969 5.3219 3.00043 4.16117 4.16117L6.98959 6.98959C7.77889 6.20029 8.71592 5.57419 9.74719 5.14702L8.21646 1.45151ZM4.16117 4.16117C3.00043 5.3219 2.07969 6.69989 1.45151 8.21646L5.14702 9.74719C5.57419 8.71592 6.20029 7.77889 6.98959 6.98959L4.16117 4.16117ZM1.45151 8.21646C0.823322 9.73303 0.5 11.3585 0.5 13L4.5 13C4.5 11.8838 4.71986 10.7785 5.14702 9.74719L1.45151 8.21646ZM30.9142 28.0858L21.9142 19.0858L19.0858 21.9142L28.0858 30.9142L30.9142 28.0858Z" fill="#354052"/>
</svg>
