<svg width="203" height="234" viewBox="0 0 203 234" fill="none" xmlns="http://www.w3.org/2000/svg">
<rect x="22.9622" y="73.1302" width="157.182" height="160.878" fill="#9E6844"/>
<ellipse cx="101.553" cy="176.695" rx="35.4928" ry="23.8803" fill="#CA9573"/>
<ellipse cx="101.173" cy="165.383" rx="13.3098" ry="8.79799" fill="#333331"/>
<path d="M39.4409 151.161C49.351 141.344 54.8792 141.732 64.7929 151.161" stroke="#333331" stroke-linecap="round"/>
<path d="M137.046 149.508C146.956 139.69 152.484 140.079 162.398 149.508" stroke="#333331" stroke-linecap="round"/>
<ellipse cx="31.4074" cy="30.2" rx="31.4074" ry="30.2" transform="matrix(0.980561 0.196214 -0.199449 0.979908 12.0466 56.0319)" fill="#9E6844"/>
<ellipse cx="31.072" cy="29.9671" rx="31.072" ry="29.9671" transform="matrix(-0.980561 -0.196214 0.199449 -0.979908 191.046 126.924)" fill="#9E6844"/>
<path opacity="0.5" fill-rule="evenodd" clip-rule="evenodd" d="M53.9921 91.1754C53.7602 91.3315 53.542 91.5158 53.3424 91.7282L36.7769 109.354C36.5478 109.598 36.3571 109.864 36.2045 110.145C34.7704 110.055 33.3227 109.783 31.8915 109.315C22.9375 106.384 18.0187 96.86 20.9051 88.0427C23.7914 79.2255 33.3899 74.4538 42.3439 77.3849C48.7668 79.4874 53.1134 84.9824 53.9921 91.1754Z" fill="#805336"/>
<path opacity="0.5" fill-rule="evenodd" clip-rule="evenodd" d="M149.722 91.0284C149.954 91.1845 150.172 91.3689 150.371 91.5812L166.941 109.207C167.17 109.451 167.361 109.717 167.513 109.998C168.948 109.908 170.396 109.636 171.827 109.168C180.783 106.237 185.703 96.7129 182.816 87.8957C179.929 79.0784 170.328 74.3068 161.372 77.2379C154.948 79.3404 150.601 84.8354 149.722 91.0284Z" fill="#805336"/>
<path d="M101.5 0L141.77 73.5H61.2298L101.5 0Z" fill="#A62C26"/>
</svg>
